<mxfile host="app.diagrams.net" modified="2023-09-26T07:04:05.079Z" agent="Mozilla/5.0 (X11; Ubuntu; Linux x86_64; rv:109.0) Gecko/20100101 Firefox/117.0" version="21.8.2" etag="QqYd7JwegUg5IOp8QN9_" type="github">
  <diagram name="Page-1" id="3LfvS937DJtHsgG3JjyU">
    <mxGraphModel>
      <root>
        <mxCell id="0" />
        <mxCell id="1" parent="0" />
      </root>
    </mxGraphModel>
  </diagram>
</mxfile>
